<svg width="16" height="16" viewBox="0 0 16 16" fill="none" xmlns="http://www.w3.org/2000/svg">
<mask id="mask0_1827_67656" style="mask-type:alpha" maskUnits="userSpaceOnUse" x="0" y="0" width="16" height="16">
<rect width="16" height="16" fill="#D9D9D9"/>
</mask>
<g mask="url(#mask0_1827_67656)">
<path d="M2.66732 13.3332C2.30065 13.3332 1.98687 13.2027 1.72598 12.9418C1.46465 12.6805 1.33398 12.3665 1.33398 11.9998V3.99984C1.33398 3.63317 1.46465 3.31939 1.72598 3.0585C1.98687 2.79717 2.30065 2.6665 2.66732 2.6665H6.66732L8.00065 3.99984H13.334C13.7007 3.99984 14.0147 4.1305 14.276 4.39184C14.5369 4.65273 14.6673 4.9665 14.6673 5.33317V11.9998C14.6673 12.3665 14.5369 12.6805 14.276 12.9418C14.0147 13.2027 13.7007 13.3332 13.334 13.3332H2.66732Z" fill="#5372F6"/>
</g>
</svg>
